<?xml version="1.0" encoding="utf-8"?>
<!-- Generator: Adobe Illustrator 17.0.0, SVG Export Plug-In . SVG Version: 6.00 Build 0)  -->
<!DOCTYPE svg PUBLIC "-//W3C//DTD SVG 1.1//EN" "http://www.w3.org/Graphics/SVG/1.1/DTD/svg11.dtd">
<svg version="1.1" id="Layer_1" xmlns="http://www.w3.org/2000/svg" xmlns:xlink="http://www.w3.org/1999/xlink" x="0px" y="0px"
	 width="960px" height="560px" viewBox="0 0 960 560" enable-background="new 0 0 960 560" xml:space="preserve">
<rect x="471.459" y="271.292" fill="#262522" width="16.75" height="16.75"/>
<path fill="#494742" d="M486.968,288.804v-14.958c0-0.552-0.448-1-1-1h-13.125c-0.552,0-1,0.448-1,1v14.958H486.968z"/>
<linearGradient id="SVGID_1_" gradientUnits="userSpaceOnUse" x1="477.9046" y1="290.6076" x2="481.763" y2="268.7257">
	<stop  offset="0" style="stop-color:#615F57"/>
	<stop  offset="1" style="stop-color:#77756B"/>
</linearGradient>
<path fill="url(#SVGID_1_)" d="M486.834,272.167c0.276,0,0.5,0.224,0.5,0.5v14c0,0.276-0.224,0.5-0.5,0.5h-14
	c-0.276,0-0.5-0.224-0.5-0.5v-14c0-0.276,0.224-0.5,0.5-0.5H486.834 M486.834,269.667h-14c-1.657,0-3,1.343-3,3v14
	c0,1.657,1.343,3,3,3h14c1.657,0,3-1.343,3-3v-14C489.834,271.01,488.491,269.667,486.834,269.667L486.834,269.667z"/>
</svg>
