<?xml version="1.0" encoding="utf-8"?>
<!-- Generator: Adobe Illustrator 17.0.0, SVG Export Plug-In . SVG Version: 6.00 Build 0)  -->
<!DOCTYPE svg PUBLIC "-//W3C//DTD SVG 1.1//EN" "http://www.w3.org/Graphics/SVG/1.1/DTD/svg11.dtd">
<svg version="1.1" id="Layer_1" xmlns="http://www.w3.org/2000/svg" xmlns:xlink="http://www.w3.org/1999/xlink" x="0px" y="0px"
	 width="960px" height="560px" viewBox="0 0 960 560" enable-background="new 0 0 960 560" xml:space="preserve">
<rect x="471.625" y="271.542" width="16.75" height="16.75"/>
<path fill="#262522" d="M487.134,289.054v-14.958c0-0.552-0.448-1-1-1h-13.125c-0.552,0-1,0.448-1,1v14.958H487.134z"/>
<linearGradient id="SVGID_1_" gradientUnits="userSpaceOnUse" x1="478.0708" y1="290.8576" x2="481.9292" y2="268.9757">
	<stop  offset="0" style="stop-color:#615F57"/>
	<stop  offset="1" style="stop-color:#77756B"/>
</linearGradient>
<path fill="url(#SVGID_1_)" d="M487,272.417c0.276,0,0.5,0.224,0.5,0.5v14c0,0.276-0.224,0.5-0.5,0.5h-14
	c-0.276,0-0.5-0.224-0.5-0.5v-14c0-0.276,0.224-0.5,0.5-0.5H487 M487,269.917h-14c-1.657,0-3,1.343-3,3v14c0,1.657,1.343,3,3,3h14
	c1.657,0,3-1.343,3-3v-14C490,271.26,488.657,269.917,487,269.917L487,269.917z"/>
</svg>
