<?xml version="1.0" encoding="utf-8"?>
<!-- Generator: Adobe Illustrator 17.0.0, SVG Export Plug-In . SVG Version: 6.00 Build 0)  -->
<!DOCTYPE svg PUBLIC "-//W3C//DTD SVG 1.1//EN" "http://www.w3.org/Graphics/SVG/1.1/DTD/svg11.dtd">
<svg version="1.1" id="Layer_1" xmlns="http://www.w3.org/2000/svg" xmlns:xlink="http://www.w3.org/1999/xlink" x="0px" y="0px"
	 width="960px" height="560px" viewBox="0 0 960 560" enable-background="new 0 0 960 560" xml:space="preserve">
<rect x="473.016" y="272.559" fill="#B2A359" width="15.2" height="15.2"/>
<polygon fill="#A59753" points="473.016,272.559 473.016,287.759 470.616,290.159 470.616,270.159 "/>
<polygon fill="#9E914F" points="473.016,287.759 488.216,287.759 490.616,290.159 470.616,290.159 "/>
<polygon fill="#C1B161" points="488.216,287.759 488.216,272.559 490.616,270.159 490.616,290.159 "/>
<path fill="#CCBB66" d="M490.616,270.159h-20l2.335,2.335c-0.001,0.023-0.013,0.042-0.013,0.065c0,0.639,0.518,1.156,1.156,1.156
	s1.156-0.518,1.156-1.156h0.655c0.107,0.24,0.346,0.409,0.626,0.409s0.519-0.169,0.626-0.409h1.902c0,0.433,0.351,0.784,0.784,0.784
	s0.784-0.351,0.784-0.784h1.778c0,0.259,0.21,0.469,0.469,0.469s0.469-0.21,0.469-0.469h1.156c0,0.311,0.252,0.563,0.563,0.563
	s0.563-0.252,0.563-0.563h1.094c0,0.414,0.336,0.75,0.75,0.75s0.75-0.336,0.75-0.75c0-0.001-0.001-0.002-0.001-0.003
	L490.616,270.159z"/>
<circle fill="#9E914F" cx="475.25" cy="285.375" r="0.594"/>
<circle fill="#9E914F" cx="478.688" cy="284.031" r="1.344"/>
<circle fill="#9E914F" cx="481.594" cy="285.969" r="0.5"/>
<circle fill="#9E914F" cx="485.625" cy="284.781" r="1.188"/>
</svg>
