<?xml version="1.0" encoding="utf-8"?>
<!-- Generator: Adobe Illustrator 17.0.0, SVG Export Plug-In . SVG Version: 6.00 Build 0)  -->
<!DOCTYPE svg PUBLIC "-//W3C//DTD SVG 1.1//EN" "http://www.w3.org/Graphics/SVG/1.1/DTD/svg11.dtd">
<svg version="1.1" id="Layer_1" xmlns="http://www.w3.org/2000/svg" xmlns:xlink="http://www.w3.org/1999/xlink" x="0px" y="0px"
	 width="960px" height="560px" viewBox="0 0 960 560" enable-background="new 0 0 960 560" xml:space="preserve">
<path fill="#A0A0A0" d="M487.708,280.595v-2h-1.653c-0.062-0.365-0.158-0.718-0.283-1.057l1.431-0.826l-1-1.732l-1.427,0.824
	c-0.234-0.282-0.494-0.542-0.776-0.776l0.824-1.427l-1.732-1l-0.826,1.432c-0.339-0.125-0.692-0.221-1.057-0.283v-1.653h-2v1.653
	c-0.365,0.062-0.718,0.158-1.057,0.283l-0.827-1.432l-1.732,1l0.824,1.428c-0.282,0.234-0.541,0.494-0.776,0.776l-1.428-0.824
	l-1,1.732l1.432,0.827c-0.126,0.339-0.221,0.692-0.283,1.057h-1.653v2h1.653c0.062,0.365,0.158,0.718,0.283,1.057l-1.432,0.826
	l1,1.732l1.427-0.824c0.234,0.282,0.494,0.541,0.776,0.776l-0.824,1.427l1.732,1l0.826-1.431c0.339,0.126,0.692,0.221,1.057,0.283
	v1.653h2v-1.653c0.365-0.062,0.718-0.158,1.058-0.283l0.826,1.431l1.732-1L484,284.163c0.282-0.234,0.542-0.494,0.776-0.776
	l1.427,0.824l1-1.732l-1.431-0.826c0.126-0.339,0.221-0.692,0.283-1.058H487.708z M480.208,283.137
	c-1.956,0-3.542-1.586-3.542-3.542s1.586-3.542,3.542-3.542s3.542,1.586,3.542,3.542S482.164,283.137,480.208,283.137z"/>
</svg>
