<?xml version="1.0" encoding="utf-8"?>
<!-- Generator: Adobe Illustrator 17.0.0, SVG Export Plug-In . SVG Version: 6.00 Build 0)  -->
<!DOCTYPE svg PUBLIC "-//W3C//DTD SVG 1.1//EN" "http://www.w3.org/Graphics/SVG/1.1/DTD/svg11.dtd">
<svg version="1.1" id="Layer_1" xmlns="http://www.w3.org/2000/svg" xmlns:xlink="http://www.w3.org/1999/xlink" x="0px" y="0px"
	 width="960px" height="560px" viewBox="0 0 960 560" enable-background="new 0 0 960 560" xml:space="preserve">
<path fill="#A0A0A0" d="M484.099,279.595c0-0.284-0.043-0.557-0.106-0.822l0.937-0.541l-1-1.732l-0.937,0.541
	c-0.398-0.377-0.885-0.653-1.424-0.813v-1.09h-2v1.09c-0.54,0.16-1.027,0.436-1.424,0.814l-0.937-0.541l-1,1.732l0.938,0.541
	c-0.063,0.265-0.106,0.538-0.106,0.822s0.043,0.557,0.106,0.822l-0.938,0.541l1,1.732l0.937-0.541
	c0.398,0.377,0.885,0.653,1.424,0.814v1.09h2v-1.09c0.539-0.16,1.026-0.436,1.424-0.813l0.937,0.541l1-1.732l-0.937-0.541
	C484.056,280.152,484.099,279.88,484.099,279.595z M480.569,281.151c-0.859,0-1.556-0.697-1.556-1.556s0.697-1.556,1.556-1.556
	s1.556,0.697,1.556,1.556S481.428,281.151,480.569,281.151z"/>
</svg>
