<?xml version="1.0" encoding="utf-8"?>
<!-- Generator: Adobe Illustrator 17.0.0, SVG Export Plug-In . SVG Version: 6.00 Build 0)  -->
<!DOCTYPE svg PUBLIC "-//W3C//DTD SVG 1.1//EN" "http://www.w3.org/Graphics/SVG/1.1/DTD/svg11.dtd">
<svg version="1.1" id="Layer_1" xmlns="http://www.w3.org/2000/svg" xmlns:xlink="http://www.w3.org/1999/xlink" x="0px" y="0px"
	 width="960px" height="560px" viewBox="0 0 960 560" enable-background="new 0 0 960 560" xml:space="preserve">
<g>
	<polygon fill="#CCCCCC" points="489.196,270.721 470.804,270.721 470,269.917 490,269.917 	"/>
	<rect x="470.804" y="270.721" fill="#B3B3B3" width="18.392" height="18.392"/>
	<polygon fill="#A8A8A8" points="470.804,270.721 470.804,289.113 470,289.917 470,269.917 	"/>
	<polygon fill="#A0A0A0" points="470.804,289.113 489.196,289.113 490,289.917 470,289.917 	"/>
	<polygon fill="#C4C4C4" points="489.196,289.113 489.196,270.721 490,269.917 490,289.917 	"/>
</g>
<path fill="#333333" d="M487.093,279.917c0,0.318-0.258,0.576-0.576,0.576h-13.034c-0.318,0-0.576-0.258-0.576-0.576l0,0
	c0-0.318,0.258-0.576,0.576-0.576h13.034C486.835,279.341,487.093,279.599,487.093,279.917L487.093,279.917z"/>
<path d="M473.483,279.341c-0.318,0-0.576,0.258-0.576,0.576c0,0.107,0.037,0.202,0.088,0.288h13.15c0.364,0,0.659-0.258,0.659-0.576
	c0-0.088-0.026-0.169-0.067-0.243c-0.068-0.028-0.143-0.045-0.221-0.045H473.483z"/>
<path fill="#333333" d="M487.093,276.892c0,0.318-0.258,0.576-0.576,0.576h-13.034c-0.318,0-0.576-0.258-0.576-0.576l0,0
	c0-0.318,0.258-0.576,0.576-0.576h13.034C486.835,276.316,487.093,276.574,487.093,276.892L487.093,276.892z"/>
<path d="M473.483,276.316c-0.318,0-0.576,0.258-0.576,0.576c0,0.107,0.037,0.202,0.088,0.288h13.15c0.364,0,0.659-0.258,0.659-0.576
	c0-0.088-0.026-0.169-0.067-0.243c-0.068-0.028-0.143-0.045-0.221-0.045H473.483z"/>
<path fill="#333333" d="M487.093,273.868c0,0.318-0.258,0.576-0.576,0.576h-13.034c-0.318,0-0.576-0.258-0.576-0.576l0,0
	c0-0.318,0.258-0.576,0.576-0.576h13.034C486.835,273.292,487.093,273.55,487.093,273.868L487.093,273.868z"/>
<path d="M473.483,273.292c-0.318,0-0.576,0.258-0.576,0.576c0,0.107,0.037,0.202,0.088,0.288h13.15c0.364,0,0.659-0.258,0.659-0.576
	c0-0.088-0.026-0.169-0.067-0.243c-0.068-0.028-0.143-0.045-0.221-0.045H473.483z"/>
<path fill="#333333" d="M487.093,282.941c0,0.318-0.258,0.576-0.576,0.576h-13.034c-0.318,0-0.576-0.258-0.576-0.576l0,0
	c0-0.318,0.258-0.576,0.576-0.576h13.034C486.835,282.365,487.093,282.623,487.093,282.941L487.093,282.941z"/>
<path d="M473.483,282.365c-0.318,0-0.576,0.258-0.576,0.576c0,0.107,0.037,0.202,0.088,0.288h13.15c0.364,0,0.659-0.258,0.659-0.576
	c0-0.088-0.026-0.169-0.067-0.243c-0.068-0.028-0.143-0.045-0.221-0.045H473.483z"/>
<path fill="#333333" d="M487.093,285.966c0,0.318-0.258,0.576-0.576,0.576h-13.034c-0.318,0-0.576-0.258-0.576-0.576l0,0
	c0-0.318,0.258-0.576,0.576-0.576h13.034C486.835,285.389,487.093,285.647,487.093,285.966L487.093,285.966z"/>
<path d="M473.483,285.389c-0.318,0-0.576,0.258-0.576,0.576c0,0.107,0.037,0.202,0.088,0.288h13.15c0.364,0,0.659-0.258,0.659-0.576
	c0-0.088-0.026-0.169-0.067-0.243c-0.068-0.028-0.143-0.045-0.221-0.045H473.483z"/>
</svg>
