<?xml version="1.0" encoding="utf-8"?>
<!-- Generator: Adobe Illustrator 17.0.0, SVG Export Plug-In . SVG Version: 6.00 Build 0)  -->
<!DOCTYPE svg PUBLIC "-//W3C//DTD SVG 1.1//EN" "http://www.w3.org/Graphics/SVG/1.1/DTD/svg11.dtd">
<svg version="1.1" id="Layer_1" xmlns="http://www.w3.org/2000/svg" xmlns:xlink="http://www.w3.org/1999/xlink" x="0px" y="0px"
	 width="960px" height="560px" viewBox="0 0 960 560" enable-background="new 0 0 960 560" xml:space="preserve">
<path fill="#FFFFFF" d="M488.233,280.165c0-0.923-0.634-1.693-1.488-1.914c0-0.024,0.007-0.046,0.007-0.07
	c0-2.538-2.057-4.595-4.595-4.595c-0.992,0-1.905,0.322-2.656,0.856c-0.529-1.069-1.62-1.81-2.893-1.81
	c-1.789,0-3.239,1.45-3.239,3.239c0,1.261,0.729,2.343,1.781,2.877c-1.272,0.94-2.107,2.437-2.107,4.14c0,2.85,2.31,5.16,5.16,5.16
	c1.619,0,3.046-0.761,3.992-1.928c0.592,0.6,1.413,0.974,2.323,0.974c1.803,0,3.264-1.461,3.264-3.264
	c0-0.716-0.237-1.372-0.628-1.91C487.792,281.591,488.233,280.933,488.233,280.165z"/>
</svg>
