<?xml version="1.0" encoding="utf-8"?>
<!-- Generator: Adobe Illustrator 17.0.0, SVG Export Plug-In . SVG Version: 6.00 Build 0)  -->
<!DOCTYPE svg PUBLIC "-//W3C//DTD SVG 1.1//EN" "http://www.w3.org/Graphics/SVG/1.1/DTD/svg11.dtd">
<svg version="1.1" id="Layer_1" xmlns="http://www.w3.org/2000/svg" xmlns:xlink="http://www.w3.org/1999/xlink" x="0px" y="0px"
	 width="960px" height="560px" viewBox="0 0 960 560" enable-background="new 0 0 960 560" xml:space="preserve">
<polygon fill="#4C4C4C" points="493.6,279.317 478.4,279.317 476,276.917 496,276.917 "/>
<rect x="478.4" y="279.317" fill="#333333" width="15.2" height="15.2"/>
<polygon fill="#262626" points="478.4,279.317 478.4,294.517 476,296.917 476,276.917 "/>
<polygon fill="#1E1E1E" points="478.4,294.517 493.6,294.517 496,296.917 476,296.917 "/>
<polygon fill="#424242" points="493.6,294.517 493.6,279.317 496,276.917 496,296.917 "/>
<polygon opacity="0.1" fill="#FFFFFF" points="496,290.621 496,286.379 493.6,284.229 488.685,279.314 486.538,276.917 
	482.296,276.917 484.444,279.315 493.599,288.47 "/>
<polygon opacity="0.05" fill="#FFFFFF" points="496,294.666 496,293.251 493.601,291.103 481.813,279.315 479.665,276.917 
	478.251,276.917 480.401,279.316 493.601,292.517 "/>
</svg>
