<?xml version="1.0" encoding="utf-8"?>
<!-- Generator: Adobe Illustrator 17.0.0, SVG Export Plug-In . SVG Version: 6.00 Build 0)  -->
<!DOCTYPE svg PUBLIC "-//W3C//DTD SVG 1.1//EN" "http://www.w3.org/Graphics/SVG/1.1/DTD/svg11.dtd">
<svg version="1.1" id="Layer_1" xmlns="http://www.w3.org/2000/svg" xmlns:xlink="http://www.w3.org/1999/xlink" x="0px" y="0px"
	 width="960px" height="560px" viewBox="0 0 960 560" enable-background="new 0 0 960 560" xml:space="preserve">
<path fill="#FFFFFF" d="M543.791,281.242l-2.519-1.25l-3.083-1.53l1.837-2.911l1.5-2.378l-2.665,0.897l-3.262,1.098l-0.76-3.357
	l-0.621-2.743l-1.25,2.519l-1.53,3.083l-2.911-1.837l-2.365-1.492l0.883,2.653l1.039,3.123H419.649
	c-1.385,0-2.512,1.127-2.512,2.512c0,1.385,1.127,2.512,2.512,2.512h107.542l-1.383,2.192l-1.5,2.378l2.665-0.897l3.262-1.098
	l0.76,3.357l0.621,2.743l1.25-2.519l1.53-3.083l2.911,1.837l2.378,1.5l-0.897-2.665l-1.098-3.262l3.357-0.76L543.791,281.242z
	 M533.905,281.14h-4.901H423.55h-3.901c-0.835,0-1.512-0.677-1.512-1.512s0.677-1.512,1.512-1.512h3.436h106.383h4.436
	c0.835,0,1.512,0.677,1.512,1.512S534.74,281.14,533.905,281.14z"/>
</svg>
