<?xml version="1.0" encoding="utf-8"?>
<!-- Generator: Adobe Illustrator 17.0.0, SVG Export Plug-In . SVG Version: 6.00 Build 0)  -->
<!DOCTYPE svg PUBLIC "-//W3C//DTD SVG 1.1//EN" "http://www.w3.org/Graphics/SVG/1.1/DTD/svg11.dtd">
<svg version="1.1" id="Layer_1" xmlns="http://www.w3.org/2000/svg" xmlns:xlink="http://www.w3.org/1999/xlink" x="0px" y="0px"
	 width="960px" height="560px" viewBox="0 0 960 560" enable-background="new 0 0 960 560" xml:space="preserve">
<rect x="335.278" y="188.132" fill="#5A5245" width="290.817" height="184.368"/>
<g>
	<rect x="403.911" y="246.058" fill="none" stroke="#51493F" stroke-miterlimit="10" width="8.688" height="4.369"/>
	<rect x="412.599" y="246.058" fill="none" stroke="#51493F" stroke-miterlimit="10" width="8.688" height="4.369"/>
	<rect x="408.255" y="250.412" fill="none" stroke="#51493F" stroke-miterlimit="10" width="8.688" height="4.369"/>
	<rect x="433.244" y="303.222" fill="none" stroke="#51493F" stroke-miterlimit="10" width="8.688" height="4.369"/>
	<rect x="441.932" y="303.222" fill="none" stroke="#51493F" stroke-miterlimit="10" width="8.688" height="4.369"/>
	<rect x="437.588" y="307.576" fill="none" stroke="#51493F" stroke-miterlimit="10" width="8.688" height="4.369"/>
	<rect x="360.594" y="351.805" fill="none" stroke="#51493F" stroke-miterlimit="10" width="8.688" height="4.369"/>
	<rect x="369.282" y="351.805" fill="none" stroke="#51493F" stroke-miterlimit="10" width="8.688" height="4.369"/>
	<rect x="364.938" y="356.159" fill="none" stroke="#51493F" stroke-miterlimit="10" width="8.688" height="4.369"/>
	<rect x="459.078" y="211.076" fill="none" stroke="#51493F" stroke-miterlimit="10" width="8.688" height="4.369"/>
	<rect x="467.766" y="211.076" fill="none" stroke="#51493F" stroke-miterlimit="10" width="8.688" height="4.369"/>
	<rect x="463.422" y="215.429" fill="none" stroke="#51493F" stroke-miterlimit="10" width="8.688" height="4.369"/>
	<rect x="590.411" y="224.722" fill="none" stroke="#51493F" stroke-miterlimit="10" width="8.688" height="4.369"/>
	<rect x="599.099" y="224.722" fill="none" stroke="#51493F" stroke-miterlimit="10" width="8.688" height="4.369"/>
	<rect x="594.755" y="229.076" fill="none" stroke="#51493F" stroke-miterlimit="10" width="8.688" height="4.369"/>
	<rect x="550.077" y="257.222" fill="none" stroke="#51493F" stroke-miterlimit="10" width="8.688" height="4.369"/>
	<rect x="558.765" y="257.222" fill="none" stroke="#51493F" stroke-miterlimit="10" width="8.688" height="4.369"/>
	<rect x="554.421" y="261.576" fill="none" stroke="#51493F" stroke-miterlimit="10" width="8.688" height="4.369"/>
	<rect x="590.411" y="341.722" fill="none" stroke="#51493F" stroke-miterlimit="10" width="8.688" height="4.369"/>
	<rect x="599.099" y="341.722" fill="none" stroke="#51493F" stroke-miterlimit="10" width="8.688" height="4.369"/>
	<rect x="594.755" y="346.076" fill="none" stroke="#51493F" stroke-miterlimit="10" width="8.688" height="4.369"/>
</g>
<polyline fill="none" stroke="#51493F" stroke-miterlimit="10" points="452,293.25 449.25,296.583 451.25,299.167 450.621,303.222 
	454.417,304.417 "/>
<line fill="none" stroke="#51493F" stroke-miterlimit="10" x1="455.25" y1="297.25" x2="451.25" y2="299.167"/>
<path fill="#544C43" d="M505.412,259.523c-2.3-2.209-14.026-3.816-18.403-0.02c-4.377,3.796,0.456,9.909-3.301,14.181
	c-3.757,4.272-10.044,0.755-9.389,7.065c0.654,6.311,5.026,11.239,10.367,12.621c5.341,1.382,5.142-9.454,9.702-10.126
	c4.56-0.672,12.282,5.118,14.432,4.322c2.15-0.796,3.762-5.989,2.853-9.131c-0.909-3.142-8.159-4.682-8.965-7.633
	C501.901,267.853,507.712,261.732,505.412,259.523z"/>
<circle fill="#544C43" cx="503.333" cy="294.667" r="3.542"/>
<circle fill="#544C43" cx="511.931" cy="296.672" r="1.536"/>
</svg>
