<?xml version="1.0" encoding="utf-8"?>
<!-- Generator: Adobe Illustrator 17.0.0, SVG Export Plug-In . SVG Version: 6.00 Build 0)  -->
<!DOCTYPE svg PUBLIC "-//W3C//DTD SVG 1.1//EN" "http://www.w3.org/Graphics/SVG/1.1/DTD/svg11.dtd">
<svg version="1.1" id="Layer_1" xmlns="http://www.w3.org/2000/svg" xmlns:xlink="http://www.w3.org/1999/xlink" x="0px" y="0px"
	 width="960px" height="560px" viewBox="0 0 960 560" enable-background="new 0 0 960 560" xml:space="preserve">
<rect x="334.728" y="188.132" fill="#5A5245" width="290.817" height="184.368"/>
<rect x="468.48" y="275.35" fill="none" stroke="#51493F" stroke-miterlimit="10" width="8.688" height="4.369"/>
<rect x="459.792" y="275.35" fill="none" stroke="#51493F" stroke-miterlimit="10" width="8.688" height="4.369"/>
<rect x="464.136" y="270.996" fill="none" stroke="#51493F" stroke-miterlimit="10" width="8.688" height="4.369"/>
<rect x="591.656" y="353.982" fill="none" stroke="#51493F" stroke-miterlimit="10" width="8.688" height="4.369"/>
<rect x="582.968" y="353.982" fill="none" stroke="#51493F" stroke-miterlimit="10" width="8.688" height="4.369"/>
<rect x="587.312" y="349.628" fill="none" stroke="#51493F" stroke-miterlimit="10" width="8.688" height="4.369"/>
<rect x="513.237" y="204.149" fill="none" stroke="#51493F" stroke-miterlimit="10" width="8.688" height="4.369"/>
<rect x="504.549" y="204.149" fill="none" stroke="#51493F" stroke-miterlimit="10" width="8.688" height="4.369"/>
<rect x="508.893" y="199.795" fill="none" stroke="#51493F" stroke-miterlimit="10" width="8.688" height="4.369"/>
<rect x="371.951" y="299.49" fill="none" stroke="#51493F" stroke-miterlimit="10" width="8.688" height="4.369"/>
<rect x="363.263" y="299.49" fill="none" stroke="#51493F" stroke-miterlimit="10" width="8.688" height="4.369"/>
<rect x="367.607" y="295.136" fill="none" stroke="#51493F" stroke-miterlimit="10" width="8.688" height="4.369"/>
<rect x="367.607" y="215.437" fill="none" stroke="#51493F" stroke-miterlimit="10" width="8.688" height="4.369"/>
<rect x="376.295" y="215.437" fill="none" stroke="#51493F" stroke-miterlimit="10" width="8.688" height="4.369"/>
<rect x="371.951" y="219.791" fill="none" stroke="#51493F" stroke-miterlimit="10" width="8.688" height="4.369"/>
<rect x="421.118" y="338.639" fill="none" stroke="#51493F" stroke-miterlimit="10" width="8.688" height="4.369"/>
<rect x="429.806" y="338.639" fill="none" stroke="#51493F" stroke-miterlimit="10" width="8.688" height="4.369"/>
<rect x="425.462" y="342.993" fill="none" stroke="#51493F" stroke-miterlimit="10" width="8.688" height="4.369"/>
<rect x="549.301" y="259.399" fill="none" stroke="#51493F" stroke-miterlimit="10" width="8.688" height="4.369"/>
<rect x="557.989" y="259.399" fill="none" stroke="#51493F" stroke-miterlimit="10" width="8.688" height="4.369"/>
<rect x="553.645" y="263.753" fill="none" stroke="#51493F" stroke-miterlimit="10" width="8.688" height="4.369"/>
<path opacity="0.33" fill="#161616" d="M625.545,328.173h-86.407v-0.603h-2.409v0.604c-2.899,0-5.25,2.351-5.25,5.25h-0.604v2.409
	h0.604v22.234h-0.604v2.409h0.604v3.417c0,1.45,1.175,2.625,2.625,2.625c1.45,0,2.625-1.175,2.625-2.625v-3.417h0.604v-2.409h-0.604
	v-22.234h0.604v-1.805h1.805v-0.606h86.407V328.173z"/>
<linearGradient id="SVGID_1_" gradientUnits="userSpaceOnUse" x1="1101.9166" y1="345.9583" x2="1107.1666" y2="345.9583" gradientTransform="matrix(-1 0 0 1 1637.6459 0)">
	<stop  offset="0" style="stop-color:#514F4E"/>
	<stop  offset="0.5" style="stop-color:#5B5957"/>
	<stop  offset="1" style="stop-color:#514F4E"/>
</linearGradient>
<rect x="530.479" y="334.833" fill="url(#SVGID_1_)" width="5.25" height="22.25"/>
<linearGradient id="SVGID_2_" gradientUnits="userSpaceOnUse" x1="1101.9166" y1="361.1851" x2="1107.1666" y2="361.1851" gradientTransform="matrix(-1 0 0 1 1637.6459 0)">
	<stop  offset="0" style="stop-color:#514F4E"/>
	<stop  offset="0.5" style="stop-color:#5B5957"/>
	<stop  offset="1" style="stop-color:#514F4E"/>
</linearGradient>
<rect x="530.479" y="359.477" fill="url(#SVGID_2_)" width="5.25" height="3.417"/>
<linearGradient id="SVGID_3_" gradientUnits="userSpaceOnUse" x1="745.0773" y1="524.3466" x2="750.3273" y2="524.3466" gradientTransform="matrix(0 -1 -1 0 1106.1875 1077.5)">
	<stop  offset="0" style="stop-color:#514F4E"/>
	<stop  offset="0.5" style="stop-color:#5B5957"/>
	<stop  offset="1" style="stop-color:#514F4E"/>
</linearGradient>
<rect x="538.138" y="327.173" fill="url(#SVGID_3_)" width="87.407" height="5.25"/>
<linearGradient id="SVGID_4_" gradientUnits="userSpaceOnUse" x1="1101.3125" y1="333.6288" x2="1107.7709" y2="333.6288" gradientTransform="matrix(-1 0 0 1 1637.6459 0)">
	<stop  offset="0" style="stop-color:#474645"/>
	<stop  offset="0.5" style="stop-color:#514F4E"/>
	<stop  offset="1" style="stop-color:#474645"/>
</linearGradient>
<rect x="529.875" y="332.424" fill="url(#SVGID_4_)" width="6.458" height="2.409"/>
<linearGradient id="SVGID_5_" gradientUnits="userSpaceOnUse" x1="1101.3125" y1="358.2722" x2="1107.7709" y2="358.2722" gradientTransform="matrix(-1 0 0 1 1637.6459 0)">
	<stop  offset="0" style="stop-color:#474645"/>
	<stop  offset="0.5" style="stop-color:#514F4E"/>
	<stop  offset="1" style="stop-color:#474645"/>
</linearGradient>
<rect x="529.875" y="357.068" fill="url(#SVGID_5_)" width="6.458" height="2.409"/>
<linearGradient id="SVGID_6_" gradientUnits="userSpaceOnUse" x1="748.517" y1="560.4243" x2="754.9753" y2="560.4243" gradientTransform="matrix(0 -1 -1 0 1097.358 1081.5454)">
	<stop  offset="0" style="stop-color:#474645"/>
	<stop  offset="0.5" style="stop-color:#514F4E"/>
	<stop  offset="1" style="stop-color:#474645"/>
</linearGradient>
<rect x="535.729" y="326.57" fill="url(#SVGID_6_)" width="2.409" height="6.458"/>
<linearGradient id="SVGID_7_" gradientUnits="userSpaceOnUse" x1="1101.9166" y1="332.4243" x2="1105.629" y2="328.712" gradientTransform="matrix(-1 0 0 1 1637.6459 0)">
	<stop  offset="0" style="stop-color:#514F4E"/>
	<stop  offset="0.5" style="stop-color:#5B5957"/>
	<stop  offset="1" style="stop-color:#514F4E"/>
</linearGradient>
<path fill="url(#SVGID_7_)" d="M535.729,327.174c-2.899,0-5.25,2.35-5.25,5.25h5.25V327.174z"/>
<linearGradient id="SVGID_8_" gradientUnits="userSpaceOnUse" x1="1101.9166" y1="364.2059" x2="1107.1666" y2="364.2059" gradientTransform="matrix(-1 0 0 1 1637.6459 0)">
	<stop  offset="0" style="stop-color:#514F4E"/>
	<stop  offset="0.5" style="stop-color:#5B5957"/>
	<stop  offset="1" style="stop-color:#514F4E"/>
</linearGradient>
<path fill="url(#SVGID_8_)" d="M535.729,362.893c0,1.45-1.175,2.625-2.625,2.625c-1.45,0-2.625-1.175-2.625-2.625H535.729z"/>
<g opacity="0.33">
	<path fill="#161616" d="M445.044,248.037v-2.409h-0.604v-3.417c0-1.45-1.175-2.625-2.625-2.625c-1.45,0-2.625,1.175-2.625,2.625
		v3.417h-0.604v2.409h0.604v22.234h-0.604v2.409h0.604v3.417c0,1.45,1.175,2.625,2.625,2.625c1.45,0,2.625-1.175,2.625-2.625v-3.417
		h0.604v-2.409h-0.604v-22.234H445.044z"/>
	<path fill="#161616" d="M435.023,245.794c0-1.45-1.175-2.625-2.625-2.625c-1.45,0-2.625,1.175-2.625,2.625v3.417h-0.604v2.409
		h0.604v22.234h-0.604v2.409h0.604v3.417c0,1.45,1.175,2.625,2.625,2.625c1.45,0,2.625-1.175,2.625-2.625v-3.417h0.604v-2.409
		h-0.604V251.62h0.604v-2.409h-0.604V245.794z"/>
</g>
<linearGradient id="SVGID_9_" gradientUnits="userSpaceOnUse" x1="362.4167" y1="307.9426" x2="367.6667" y2="307.9426" gradientTransform="matrix(1 0 0 -1 75.7735 566.0886)">
	<stop  offset="0" style="stop-color:#514F4E"/>
	<stop  offset="0.5" style="stop-color:#5B5957"/>
	<stop  offset="1" style="stop-color:#514F4E"/>
</linearGradient>
<rect x="438.19" y="247.021" fill="url(#SVGID_9_)" width="5.25" height="22.25"/>
<linearGradient id="SVGID_10_" gradientUnits="userSpaceOnUse" x1="362.4167" y1="323.1694" x2="367.6667" y2="323.1694" gradientTransform="matrix(1 0 0 -1 75.7735 566.0886)">
	<stop  offset="0" style="stop-color:#514F4E"/>
	<stop  offset="0.5" style="stop-color:#5B5957"/>
	<stop  offset="1" style="stop-color:#514F4E"/>
</linearGradient>
<rect x="438.19" y="241.211" fill="url(#SVGID_10_)" width="5.25" height="3.417"/>
<linearGradient id="SVGID_11_" gradientUnits="userSpaceOnUse" x1="361.8125" y1="320.2565" x2="368.2708" y2="320.2565" gradientTransform="matrix(1 0 0 -1 75.7735 566.0886)">
	<stop  offset="0" style="stop-color:#474645"/>
	<stop  offset="0.5" style="stop-color:#514F4E"/>
	<stop  offset="1" style="stop-color:#474645"/>
</linearGradient>
<rect x="437.586" y="244.627" fill="url(#SVGID_11_)" width="6.458" height="2.409"/>
<linearGradient id="SVGID_12_" gradientUnits="userSpaceOnUse" x1="362.4167" y1="326.1902" x2="367.6667" y2="326.1902" gradientTransform="matrix(1 0 0 -1 75.7735 566.0886)">
	<stop  offset="0" style="stop-color:#514F4E"/>
	<stop  offset="0.5" style="stop-color:#5B5957"/>
	<stop  offset="1" style="stop-color:#514F4E"/>
</linearGradient>
<path fill="url(#SVGID_12_)" d="M438.19,241.211c0-1.45,1.175-2.625,2.625-2.625c1.45,0,2.625,1.175,2.625,2.625H438.19z"/>
<linearGradient id="SVGID_13_" gradientUnits="userSpaceOnUse" x1="362.4167" y1="479.8545" x2="367.6667" y2="479.8545" gradientTransform="matrix(1 0 0 1 75.7735 -206.4662)">
	<stop  offset="0" style="stop-color:#514F4E"/>
	<stop  offset="0.5" style="stop-color:#5B5957"/>
	<stop  offset="1" style="stop-color:#514F4E"/>
</linearGradient>
<rect x="438.19" y="271.68" fill="url(#SVGID_13_)" width="5.25" height="3.417"/>
<linearGradient id="SVGID_14_" gradientUnits="userSpaceOnUse" x1="361.8125" y1="476.9416" x2="368.2708" y2="476.9416" gradientTransform="matrix(1 0 0 1 75.7735 -206.4662)">
	<stop  offset="0" style="stop-color:#474645"/>
	<stop  offset="0.5" style="stop-color:#514F4E"/>
	<stop  offset="1" style="stop-color:#474645"/>
</linearGradient>
<rect x="437.586" y="269.271" fill="url(#SVGID_14_)" width="6.458" height="2.409"/>
<linearGradient id="SVGID_15_" gradientUnits="userSpaceOnUse" x1="362.4167" y1="482.8753" x2="367.6667" y2="482.8753" gradientTransform="matrix(1 0 0 1 75.7735 -206.4662)">
	<stop  offset="0" style="stop-color:#514F4E"/>
	<stop  offset="0.5" style="stop-color:#5B5957"/>
	<stop  offset="1" style="stop-color:#514F4E"/>
</linearGradient>
<path fill="url(#SVGID_15_)" d="M438.19,275.097c0,1.45,1.175,2.625,2.625,2.625c1.45,0,2.625-1.175,2.625-2.625H438.19z"/>
<linearGradient id="SVGID_16_" gradientUnits="userSpaceOnUse" x1="353" y1="304.3593" x2="358.25" y2="304.3593" gradientTransform="matrix(1 0 0 -1 75.7735 566.0886)">
	<stop  offset="0" style="stop-color:#514F4E"/>
	<stop  offset="0.5" style="stop-color:#5B5957"/>
	<stop  offset="1" style="stop-color:#514F4E"/>
</linearGradient>
<rect x="428.773" y="250.604" fill="url(#SVGID_16_)" width="5.25" height="22.25"/>
<linearGradient id="SVGID_17_" gradientUnits="userSpaceOnUse" x1="353" y1="319.5861" x2="358.25" y2="319.5861" gradientTransform="matrix(1 0 0 -1 75.7735 566.0886)">
	<stop  offset="0" style="stop-color:#514F4E"/>
	<stop  offset="0.5" style="stop-color:#5B5957"/>
	<stop  offset="1" style="stop-color:#514F4E"/>
</linearGradient>
<rect x="428.773" y="244.794" fill="url(#SVGID_17_)" width="5.25" height="3.417"/>
<linearGradient id="SVGID_18_" gradientUnits="userSpaceOnUse" x1="352.3958" y1="316.6732" x2="358.8542" y2="316.6732" gradientTransform="matrix(1 0 0 -1 75.7735 566.0886)">
	<stop  offset="0" style="stop-color:#474645"/>
	<stop  offset="0.5" style="stop-color:#514F4E"/>
	<stop  offset="1" style="stop-color:#474645"/>
</linearGradient>
<rect x="428.169" y="248.211" fill="url(#SVGID_18_)" width="6.458" height="2.409"/>
<linearGradient id="SVGID_19_" gradientUnits="userSpaceOnUse" x1="353" y1="322.6069" x2="358.25" y2="322.6069" gradientTransform="matrix(1 0 0 -1 75.7735 566.0886)">
	<stop  offset="0" style="stop-color:#514F4E"/>
	<stop  offset="0.5" style="stop-color:#5B5957"/>
	<stop  offset="1" style="stop-color:#514F4E"/>
</linearGradient>
<path fill="url(#SVGID_19_)" d="M428.773,244.794c0-1.45,1.175-2.625,2.625-2.625c1.45,0,2.625,1.175,2.625,2.625H428.773z"/>
<linearGradient id="SVGID_20_" gradientUnits="userSpaceOnUse" x1="353" y1="483.4378" x2="358.25" y2="483.4378" gradientTransform="matrix(1 0 0 1 75.7735 -206.4662)">
	<stop  offset="0" style="stop-color:#514F4E"/>
	<stop  offset="0.5" style="stop-color:#5B5957"/>
	<stop  offset="1" style="stop-color:#514F4E"/>
</linearGradient>
<rect x="428.773" y="275.263" fill="url(#SVGID_20_)" width="5.25" height="3.417"/>
<linearGradient id="SVGID_21_" gradientUnits="userSpaceOnUse" x1="352.3958" y1="480.525" x2="358.8542" y2="480.525" gradientTransform="matrix(1 0 0 1 75.7735 -206.4662)">
	<stop  offset="0" style="stop-color:#474645"/>
	<stop  offset="0.5" style="stop-color:#514F4E"/>
	<stop  offset="1" style="stop-color:#474645"/>
</linearGradient>
<rect x="428.169" y="272.854" fill="url(#SVGID_21_)" width="6.458" height="2.409"/>
<linearGradient id="SVGID_22_" gradientUnits="userSpaceOnUse" x1="353" y1="486.4587" x2="358.25" y2="486.4587" gradientTransform="matrix(1 0 0 1 75.7735 -206.4662)">
	<stop  offset="0" style="stop-color:#514F4E"/>
	<stop  offset="0.5" style="stop-color:#5B5957"/>
	<stop  offset="1" style="stop-color:#514F4E"/>
</linearGradient>
<path fill="url(#SVGID_22_)" d="M428.773,278.68c0,1.45,1.175,2.625,2.625,2.625c1.45,0,2.625-1.175,2.625-2.625H428.773z"/>
</svg>
