<?xml version="1.0" encoding="utf-8"?>
<!-- Generator: Adobe Illustrator 17.0.0, SVG Export Plug-In . SVG Version: 6.00 Build 0)  -->
<!DOCTYPE svg PUBLIC "-//W3C//DTD SVG 1.1//EN" "http://www.w3.org/Graphics/SVG/1.1/DTD/svg11.dtd">
<svg version="1.1" id="Layer_1" xmlns="http://www.w3.org/2000/svg" xmlns:xlink="http://www.w3.org/1999/xlink" x="0px" y="0px"
	 width="960px" height="560px" viewBox="0 0 960 560" enable-background="new 0 0 960 560" xml:space="preserve">
<polygon fill="#C9AF8F" points="555.505,251.36 560.849,249.917 561.708,251.36 "/>
<polygon fill="#C9AF8F" points="557.5,254.045 551.161,255.715 560.849,255.729 "/>
<polygon fill="#C9AF8F" points="496.667,320.997 499.458,320.997 479.25,314.831 475.833,314.831 "/>
<polygon fill="#AF9A7B" points="458.458,258.164 464,258.164 470,248.458 465.125,248.497 "/>
<path fill="#5A5245" d="M335.278,188.147v184.368h290.817V188.147H335.278z M577.667,297.331l-8.167,9.167l-17.5-2l-14.833,11.667
	l-24.333-0.833l-16.167,5.667l-20.833-6.167l-9.667-12.167l2.5-19.833L460,258.164l6.667-9.667l17.833,1.833l18.333-7.5l22,3.5
	l22.5-6.667l10.75,6.021v15L571,266.164l8.088,15.667L577.667,297.331z"/>
<polygon fill="#BCA484" points="468.667,282.831 472.438,282.831 464,258.164 460,258.164 "/>
<polygon fill="#AF9A7B" points="466.167,302.664 470,302.664 472.438,282.831 468.667,282.831 "/>
<polygon fill="#C9AF8F" points="475.833,314.831 479.25,314.831 470,302.664 466.167,302.664 "/>
<rect x="406.344" y="222.993" fill="none" stroke="#51493F" stroke-miterlimit="10" width="8.688" height="4.369"/>
<rect x="415.032" y="222.993" fill="none" stroke="#51493F" stroke-miterlimit="10" width="8.688" height="4.369"/>
<rect x="410.688" y="227.347" fill="none" stroke="#51493F" stroke-miterlimit="10" width="8.688" height="4.369"/>
<rect x="369.282" y="311.169" fill="none" stroke="#51493F" stroke-miterlimit="10" width="8.688" height="4.369"/>
<rect x="377.97" y="311.169" fill="none" stroke="#51493F" stroke-miterlimit="10" width="8.688" height="4.369"/>
<rect x="373.626" y="315.523" fill="none" stroke="#51493F" stroke-miterlimit="10" width="8.688" height="4.369"/>
<rect x="579.782" y="335.049" fill="none" stroke="#51493F" stroke-miterlimit="10" width="8.688" height="4.369"/>
<rect x="588.47" y="335.049" fill="none" stroke="#51493F" stroke-miterlimit="10" width="8.688" height="4.369"/>
<rect x="584.126" y="339.403" fill="none" stroke="#51493F" stroke-miterlimit="10" width="8.688" height="4.369"/>
<g>
	<rect x="560.349" y="256.215" fill="#5A5245" width="8.688" height="4.369"/>
	<path fill="#51493F" d="M569.537,261.083h-9.688v-5.368h9.688V261.083z M560.849,260.083h7.688v-3.368h-7.688V260.083z"/>
</g>
<g>
	<rect x="551.661" y="256.215" fill="#5A5245" width="8.688" height="4.369"/>
	<path fill="#51493F" d="M560.849,261.083h-9.688v-5.368h9.688V261.083z M552.161,260.083h7.688v-3.368h-7.688V260.083z"/>
</g>
<g>
	<rect x="556.005" y="251.861" fill="#5A5245" width="8.688" height="4.369"/>
	<path fill="#51493F" d="M565.192,256.729h-9.688v-5.369h9.688V256.729z M556.505,255.729h7.688v-3.369h-7.688V255.729z"/>
</g>
<rect x="441.932" y="330.68" fill="none" stroke="#51493F" stroke-miterlimit="10" width="8.688" height="4.369"/>
<rect x="433.244" y="330.68" fill="none" stroke="#51493F" stroke-miterlimit="10" width="8.688" height="4.369"/>
<rect x="437.588" y="326.326" fill="none" stroke="#51493F" stroke-miterlimit="10" width="8.688" height="4.369"/>
<path opacity="0.33" d="M429.688,262.188h-3.417v-0.604h-2.409v0.604h-88.583v5.25h88.583v0.604h2.409v-0.604h3.417
	c1.45,0,2.625-1.175,2.625-2.625C432.313,263.363,431.137,262.188,429.688,262.188z"/>
<linearGradient id="SVGID_1_" gradientUnits="userSpaceOnUse" x1="595.483" y1="408.2617" x2="600.733" y2="408.2617" gradientTransform="matrix(4.489659e-011 -1 -1 -4.489659e-011 787.3318 861.9205)">
	<stop  offset="0" style="stop-color:#514F4E"/>
	<stop  offset="0.5" style="stop-color:#5B5957"/>
	<stop  offset="1" style="stop-color:#514F4E"/>
</linearGradient>
<rect x="335.278" y="261.188" fill="url(#SVGID_1_)" width="87.583" height="5.25"/>
<linearGradient id="SVGID_2_" gradientUnits="userSpaceOnUse" x1="595.483" y1="412.2021" x2="600.733" y2="412.2021" gradientTransform="matrix(4.489659e-011 -1 1 4.489659e-011 14.7771 861.9205)">
	<stop  offset="0" style="stop-color:#514F4E"/>
	<stop  offset="0.5" style="stop-color:#5B5957"/>
	<stop  offset="1" style="stop-color:#514F4E"/>
</linearGradient>
<rect x="425.271" y="261.188" fill="url(#SVGID_2_)" width="3.417" height="5.25"/>
<linearGradient id="SVGID_3_" gradientUnits="userSpaceOnUse" x1="594.8789" y1="409.2892" x2="601.3372" y2="409.2892" gradientTransform="matrix(4.489659e-011 -1 1 4.489659e-011 14.7771 861.9205)">
	<stop  offset="0" style="stop-color:#474645"/>
	<stop  offset="0.5" style="stop-color:#514F4E"/>
	<stop  offset="1" style="stop-color:#474645"/>
</linearGradient>
<rect x="422.862" y="260.583" fill="url(#SVGID_3_)" width="2.409" height="6.458"/>
<linearGradient id="SVGID_4_" gradientUnits="userSpaceOnUse" x1="595.483" y1="415.223" x2="600.733" y2="415.223" gradientTransform="matrix(4.489659e-011 -1 1 4.489659e-011 14.7771 861.9205)">
	<stop  offset="0" style="stop-color:#514F4E"/>
	<stop  offset="0.5" style="stop-color:#5B5957"/>
	<stop  offset="1" style="stop-color:#514F4E"/>
</linearGradient>
<path fill="url(#SVGID_4_)" d="M428.688,266.438c1.45,0,2.625-1.175,2.625-2.625s-1.175-2.625-2.625-2.625V266.438z"/>
</svg>
