<?xml version="1.0" encoding="utf-8"?>
<!-- Generator: Adobe Illustrator 17.0.0, SVG Export Plug-In . SVG Version: 6.00 Build 0)  -->
<!DOCTYPE svg PUBLIC "-//W3C//DTD SVG 1.1//EN" "http://www.w3.org/Graphics/SVG/1.1/DTD/svg11.dtd">
<svg version="1.1" id="Layer_1" xmlns="http://www.w3.org/2000/svg" xmlns:xlink="http://www.w3.org/1999/xlink" x="0px" y="0px"
	 width="960px" height="560px" viewBox="0 0 960 560" enable-background="new 0 0 960 560" xml:space="preserve">
<rect x="335.228" y="188.132" fill="#97D0E9" width="290.817" height="184.368"/>
<path fill="#92DDDB" d="M335.228,268.739l11.105-5.833l13.833,5.833l8.333-5.833l14.167,7.333l13-10.5l6.333,9l25.167-2.167
	l7.167,6.5c0,0,17.5-9.833,18.167-10.167c0.667-0.333,17.5,6.833,17.5,6.833l19.833-5l11.833,6l22.667-4.333l12.167,6.667
	l20.667-10.333l15,8.833l18.833-3.5l6.667,5l13.5-2.333l7.167,4.333l7.712-2.833v14.167H335.228V268.739z"/>
<path fill="#89D3C7" d="M335.228,298.667h290.817v-16.907c-0.365,0.341-0.686,0.729-0.938,1.164c-0.768-0.82-1.852-1.34-3.065-1.34
	c-0.939,0-1.797,0.318-2.497,0.838c-0.766-1.951-2.655-3.338-4.878-3.338c-1.823,0-3.426,0.93-4.367,2.341
	c-0.605-0.62-1.448-1.007-2.383-1.007c-1.654,0-3.016,1.207-3.278,2.787c-1.186-1.684-3.141-2.787-5.356-2.787
	c-1.236,0-2.388,0.349-3.374,0.943c-0.566-0.275-1.194-0.443-1.866-0.443c-0.678,0-1.31,0.171-1.88,0.451
	c-1.251-1.783-3.319-2.951-5.662-2.951c-2.285,0-4.305,1.113-5.564,2.821c-0.955-1.541-2.656-2.571-4.602-2.571
	c-2.805,0-5.112,2.132-5.389,4.865c-0.699-0.489-1.547-0.781-2.465-0.781c-1.677,0-3.114,0.967-3.827,2.364
	c-0.633-0.607-1.48-0.984-2.418-1.018c-0.854-2.062-2.884-3.513-5.255-3.513c-2.4,0-4.449,1.489-5.284,3.592
	c-0.518-0.263-1.095-0.426-1.716-0.426c-0.388,0-0.755,0.075-1.107,0.183c-0.225-2.205-2.066-3.933-4.33-3.933
	c-1.303,0-2.46,0.581-3.262,1.485c-1.273-1.708-3.302-2.819-5.595-2.819c-3.039,0-5.617,1.945-6.577,4.655
	c-0.826-1.2-2.207-1.989-3.774-1.989c-1.661,0-3.103,0.892-3.906,2.215c-0.831-0.504-1.802-0.799-2.844-0.799
	c-0.433,0-0.853,0.055-1.257,0.15c-0.698-0.946-1.811-1.566-3.077-1.566c-0.478,0-0.931,0.098-1.354,0.258
	c-0.502-1.687-2.046-2.925-3.896-2.925c-2.255,0-4.083,1.828-4.083,4.083c0,0.702,0.193,1.353,0.506,1.93
	c-1.296-1.437-3.167-2.346-5.256-2.346c-0.733,0-1.44,0.111-2.104,0.318c-1.078-1.599-2.905-2.651-4.979-2.651
	c-1.395,0-2.676,0.48-3.694,1.279c-0.966-0.799-2.205-1.279-3.556-1.279c-1.408,0-2.691,0.526-3.674,1.386
	c-0.817-0.851-1.961-1.386-3.234-1.386c-1.253,0-2.384,0.516-3.199,1.344c-0.913,0.035-1.712,0.508-2.186,1.223
	c-1.067-1.55-2.852-2.567-4.875-2.567c-0.048,0-0.095,0.006-0.143,0.007c-0.841-0.827-1.992-1.341-3.265-1.341
	c-2.573,0-4.658,2.086-4.658,4.658c0,0.327,0.035,0.645,0.099,0.953c-0.041,0.009-0.078,0.027-0.119,0.037
	c-0.483-1.716-2.043-2.982-3.914-2.982c-1.345,0-2.529,0.659-3.273,1.663c-0.929-0.748-2.108-1.198-3.394-1.198
	c-2.669,0-4.882,1.932-5.329,4.473h-0.479c-0.675-1.484-2.163-2.521-3.9-2.521c-0.755,0-1.454,0.212-2.07,0.554
	c-0.147-2.399-2.12-4.304-4.555-4.304c-1.286,0-2.445,0.533-3.277,1.387c-0.688-0.84-1.719-1.387-2.89-1.387
	c-1.475,0-2.738,0.859-3.35,2.097c-0.773-0.476-1.675-0.764-2.65-0.764c-1.196,0-2.281,0.43-3.149,1.122
	c0.032-0.216,0.066-0.432,0.066-0.657c0-2.466-1.999-4.465-4.465-4.465c-2.31,0-4.187,1.76-4.419,4.008
	c-0.055-0.001-0.109-0.008-0.164-0.008c-1.805,0-3.447,0.685-4.694,1.801c-0.658-0.496-1.467-0.801-2.354-0.801
	c-1.773,0-3.254,1.182-3.744,2.795c0.001-0.043,0.007-0.085,0.007-0.128c0-3.498-2.836-6.333-6.333-6.333
	c-3.478,0-6.298,2.804-6.33,6.274c-0.745-0.486-1.631-0.774-2.586-0.774c-0.844,0-1.626,0.239-2.313,0.625
	c-0.811-2.026-2.789-3.458-5.104-3.458c-1.86,0-3.501,0.926-4.496,2.339c-0.72-0.815-1.761-1.339-2.934-1.339
	c-1.859,0-3.407,1.295-3.816,3.029c-0.789-0.736-1.84-1.196-3.004-1.196c-0.506,0-0.984,0.103-1.437,0.26
	c-0.213-3.952-3.475-7.093-7.479-7.093c-3.526,0-6.476,2.437-7.277,5.716c-1.157-1.062-2.695-1.716-4.389-1.716
	c-1.545,0-2.961,0.541-4.077,1.441c-0.373-0.992-0.996-1.854-1.779-2.538V298.667z"/>
<polygon fill="#5C9B8F" points="575.932,287.646 575.932,288.542 574.89,288.542 574.89,287.208 573.495,287.208 573.495,287.854 
	572.432,287.854 572.432,287.042 570.453,287.042 570.453,288.146 569.969,288 569.453,288.146 569.453,287.313 567.745,287.313 
	567.745,288.375 565.797,288.375 565.797,293.5 567.745,293.5 568.078,293.5 569.12,293.5 569.453,293.5 570.453,293.5 
	570.682,293.5 572.078,293.5 572.432,293.5 573.495,293.5 573.807,293.5 574.64,293.5 574.89,293.5 575.932,293.5 576.453,293.5 
	577.62,293.5 577.62,287.646 576.781,287.042 "/>
<path fill="#3FB26E" d="M626.045,294.858c-44.626-2.472-89.575-3.733-134.818-3.733c-52.41,0-104.425,1.685-155.999,4.995v76.38
	h290.817V294.858z"/>
<path fill="#3AAD42" d="M626.045,322.91c-60.488-15.383-123.85-23.569-189.125-23.569c-34.479,0-68.421,2.296-101.692,6.715v64.11
	h290.817V322.91z"/>
<path fill="#CAE8ED" d="M497.591,216.824c0.608-1.053,0.961-2.271,0.961-3.574c0-3.958-3.208-7.167-7.167-7.167
	c-1.466,0-2.828,0.442-3.963,1.197c-0.84-2.72-3.374-4.697-6.37-4.697c-2.851,0-5.276,1.793-6.229,4.309
	c-1.194-1.022-2.742-1.643-4.437-1.643c-3.107,0-5.726,2.076-6.555,4.914c-1.055,0.211-1.96,0.83-2.552,1.684
	c-0.946-0.383-1.977-0.598-3.06-0.598c-4.51,0-8.167,3.656-8.167,8.167c0,4.51,3.656,8.167,8.167,8.167
	c0.635,0,1.251-0.08,1.844-0.217c1.117,4.154,4.899,7.217,9.406,7.217c3.452,0,6.477-1.799,8.21-4.505
	c1.592,1.054,3.499,1.671,5.551,1.671c1.963,0,3.789-0.57,5.337-1.542c1.332,0.966,2.964,1.542,4.735,1.542
	c4.464,0,8.083-3.619,8.083-8.083C501.385,220.78,499.867,218.254,497.591,216.824z"/>
<path fill="#CAE8ED" d="M575.706,229.394c0-2.255-1.828-4.083-4.083-4.083c-0.066,0-0.131,0.007-0.197,0.01
	c0.127-0.423,0.197-0.87,0.197-1.334c0-2.56-2.075-4.635-4.635-4.635c-0.957,0-1.846,0.29-2.584,0.787
	c0.098-0.394,0.156-0.804,0.156-1.228c0-2.804-2.273-5.077-5.077-5.077c-2.804,0-5.077,2.273-5.077,5.077
	c0,0.819,0.199,1.59,0.543,2.276c-0.352,0.104-0.683,0.254-0.991,0.439c-0.072-0.003-0.142-0.011-0.215-0.011
	c-0.775,0-1.514,0.156-2.188,0.434c-0.826-0.65-1.866-1.041-2.998-1.041c-2.682,0-4.856,2.174-4.856,4.856
	c0,1.17,0.414,2.243,1.103,3.081c-0.024,0.024-0.046,0.051-0.069,0.076c-0.569-0.254-1.198-0.398-1.862-0.398
	c-2.529,0-4.58,2.051-4.58,4.58c0,2.529,2.05,4.58,4.58,4.58c1.767,0,3.298-1.002,4.061-2.468c0.17,0.024,0.342,0.04,0.518,0.04
	c0.834,0,1.603-0.276,2.226-0.736c-0.003,0.062-0.019,0.121-0.019,0.185c0,1.95,1.581,3.532,3.531,3.532
	c1.433,0,2.661-0.857,3.214-2.084c0.549,0.467,1.251,0.759,2.028,0.759c1.58,0,2.875-1.168,3.099-2.686
	c0.278,0.087,0.567,0.148,0.874,0.148c0.751,0,1.429-0.291,1.947-0.757c0.647,0.73,1.581,1.199,2.633,1.199
	c0.896,0,1.705-0.344,2.328-0.894c0.053,1.721,1.457,3.102,3.191,3.102c1.768,0,3.2-1.433,3.2-3.2c0-0.808-0.309-1.537-0.803-2.1
	C575.405,231.14,575.706,230.303,575.706,229.394z"/>
<g>
	<path fill="#CAE8ED" d="M381.875,232.165c0,0,0.609,0.047,1.676,0.129c0.523,0.044,1.157,0.097,1.885,0.158
		c0.719,0.074,1.537,0.094,2.405,0.174c0.874,0.026,1.809,0.121,2.78,0.108c0.485-0.011,0.985,0.055,1.479,0.003
		c0.247-0.011,0.497-0.023,0.749-0.034c0.204-0.006,0.41-0.012,0.617-0.019c0.552-0.089,1.114-0.165,1.684-0.238
		c0.308-0.024,0.523-0.104,0.751-0.173c0.228-0.07,0.459-0.125,0.689-0.185c0.44-0.085,0.972-0.294,1.494-0.46
		c0.52-0.16,1.047-0.333,1.586-0.55c1.067-0.371,2.178-0.811,3.296-1.187c0.574-0.195,1.145-0.382,1.713-0.554
		c0.581-0.164,1.182-0.314,1.762-0.447c0.564-0.154,1.206-0.208,1.79-0.285l0.442-0.05l0.218-0.024l0.108-0.012l0.027-0.003
		l0.149-0.015l0.012,0l0.049,0.002c0.263,0.012,0.523,0.023,0.78,0.034c0.94-0.001,2.227,0.26,3.172,0.519
		c0.462,0.173,0.9,0.33,1.307,0.495c0.403,0.176,0.763,0.394,1.105,0.57c0.687,0.348,1.218,0.777,1.653,1.1
		c0.859,0.68,1.243,1.176,1.243,1.176s-0.149-0.04-0.428-0.115c-0.27-0.085-0.688-0.16-1.189-0.285
		c-0.512-0.098-1.124-0.225-1.819-0.309c-0.692-0.109-1.472-0.127-2.29-0.158c-0.819,0.057-1.463,0.029-2.56,0.259
		c-0.253,0.041-0.51,0.083-0.77,0.125l-0.049,0.008l-0.012,0.002c0.268-0.026,0.068-0.005,0.125-0.01l-0.021,0.007l-0.085,0.028
		l-0.17,0.056l-0.342,0.111c-0.459,0.168-0.915,0.238-1.402,0.464c-0.484,0.188-0.976,0.379-1.475,0.572
		c-0.508,0.226-1.025,0.441-1.549,0.651c-1.067,0.459-2.164,0.902-3.336,1.33c-0.569,0.214-1.174,0.402-1.79,0.578
		c-0.61,0.181-1.197,0.352-1.912,0.465l-1.02,0.175c-0.339,0.052-0.686,0.11-0.954,0.1c-0.574,0.016-1.141,0.029-1.7,0.026
		l-0.168,0.005l-0.028-0.003l-0.057-0.007l-0.113-0.013l-0.225-0.026l-0.446-0.052c-0.294-0.039-0.586-0.078-0.875-0.116
		c-0.581-0.064-1.114-0.212-1.644-0.337c-1.062-0.227-2.009-0.585-2.888-0.884c-1.728-0.686-3.097-1.377-4.017-1.944
		c-0.467-0.259-0.814-0.521-1.055-0.675C381.996,232.264,381.875,232.165,381.875,232.165z"/>
</g>
<g>
	<path fill="#CAE8ED" d="M364.29,221.394c0,0,0.589,0.163,1.62,0.448c0.504,0.143,1.117,0.317,1.82,0.517
		c0.691,0.21,1.491,0.387,2.326,0.632c0.853,0.193,1.752,0.465,2.708,0.64c0.478,0.082,0.956,0.243,1.451,0.287
		c0.244,0.036,0.492,0.073,0.741,0.11c0.201,0.033,0.404,0.066,0.609,0.1c0.559,0.018,1.125,0.052,1.698,0.09
		c0.307,0.036,0.533-0.002,0.77-0.025c0.238-0.025,0.474-0.035,0.712-0.05c0.448,0.001,1.01-0.102,1.554-0.165
		c0.541-0.057,1.091-0.126,1.662-0.236c1.119-0.159,2.293-0.378,3.462-0.533c0.6-0.081,1.197-0.155,1.787-0.215
		c0.602-0.05,1.221-0.082,1.815-0.1c0.583-0.043,1.224,0.028,1.811,0.064l0.443,0.035l0.219,0.018l0.109,0.009l0.027,0.002
		l0.15,0.014l0.012,0.003l0.048,0.011c0.256,0.062,0.509,0.123,0.758,0.183c0.923,0.18,2.136,0.682,3.013,1.118
		c0.42,0.258,0.82,0.496,1.188,0.737c0.362,0.25,0.673,0.533,0.975,0.771c0.608,0.474,1.046,0.996,1.412,1.397
		c0.712,0.832,0.995,1.393,0.995,1.393s-0.138-0.068-0.398-0.195c-0.249-0.136-0.644-0.289-1.112-0.507
		c-0.484-0.194-1.06-0.437-1.726-0.653c-0.658-0.24-1.421-0.407-2.217-0.594c-0.815-0.101-1.441-0.252-2.563-0.237
		c-0.257-0.008-0.517-0.017-0.78-0.025l-0.049-0.002l-0.012,0c0.268,0.026,0.068,0.008,0.125,0.014l-0.022,0.003l-0.089,0.011
		l-0.178,0.022l-0.357,0.044c-0.483,0.077-0.943,0.058-1.465,0.186c-0.511,0.092-1.031,0.185-1.557,0.279
		c-0.542,0.124-1.091,0.236-1.645,0.342c-1.135,0.246-2.297,0.47-3.529,0.666c-0.6,0.101-1.229,0.17-1.867,0.224
		c-0.633,0.06-1.242,0.115-1.966,0.089l-1.035-0.024c-0.343-0.014-0.695-0.024-0.956-0.085c-0.566-0.094-1.125-0.191-1.673-0.3
		l-0.166-0.028l-0.027-0.009l-0.054-0.017l-0.108-0.034l-0.216-0.069l-0.428-0.137c-0.282-0.095-0.56-0.189-0.836-0.281
		c-0.558-0.175-1.053-0.422-1.549-0.646c-0.999-0.427-1.86-0.959-2.664-1.421c-1.565-1.005-2.776-1.945-3.57-2.678
		c-0.408-0.344-0.699-0.667-0.905-0.865C364.39,221.514,364.29,221.394,364.29,221.394z"/>
</g>
<g>
	<path fill="#CAE8ED" d="M387.738,214.442c0,0,0.556,0.255,1.528,0.7c0.475,0.222,1.052,0.491,1.714,0.799
		c0.649,0.317,1.41,0.619,2.197,0.994c0.811,0.326,1.656,0.738,2.572,1.062c0.459,0.157,0.906,0.392,1.386,0.514
		c0.236,0.075,0.474,0.15,0.714,0.226c0.193,0.065,0.389,0.13,0.586,0.196c0.549,0.107,1.103,0.23,1.662,0.358
		c0.298,0.084,0.527,0.083,0.764,0.097c0.239,0.013,0.474,0.041,0.711,0.064c0.442,0.072,1.013,0.06,1.561,0.084
		c0.543,0.03,1.098,0.049,1.679,0.031c1.13,0.021,2.324-0.009,3.503,0.024c0.606,0.015,1.206,0.037,1.798,0.072
		c0.602,0.047,1.218,0.113,1.808,0.189c0.582,0.051,1.204,0.222,1.778,0.351l0.432,0.105l0.213,0.052l0.106,0.026l0.026,0.007
		l0.146,0.038l0.011,0.005l0.046,0.019c0.243,0.102,0.483,0.202,0.72,0.302c0.883,0.324,2,1.013,2.797,1.582
		c0.374,0.321,0.731,0.62,1.056,0.916c0.318,0.305,0.58,0.633,0.84,0.917c0.525,0.564,0.875,1.149,1.172,1.603
		c0.571,0.935,0.76,1.533,0.76,1.533s-0.126-0.089-0.362-0.256c-0.224-0.174-0.59-0.388-1.018-0.678
		c-0.447-0.269-0.977-0.599-1.6-0.919c-0.612-0.341-1.338-0.628-2.095-0.939c-0.789-0.229-1.383-0.478-2.492-0.642
		c-0.252-0.049-0.507-0.098-0.766-0.149l-0.048-0.01l-0.012-0.002c0.261,0.068,0.066,0.019,0.121,0.034l-0.022-0.001l-0.089-0.003
		l-0.179-0.006l-0.359-0.013c-0.489-0.001-0.941-0.092-1.476-0.049c-0.519,0.009-1.047,0.018-1.582,0.028
		c-0.554,0.037-1.115,0.059-1.679,0.076c-1.16,0.063-2.342,0.099-3.59,0.096c-0.608,0.005-1.241-0.028-1.879-0.075
		c-0.635-0.041-1.244-0.083-1.955-0.225l-1.018-0.188c-0.336-0.068-0.682-0.134-0.93-0.235c-0.544-0.183-1.08-0.367-1.604-0.562
		l-0.16-0.054l-0.026-0.013l-0.051-0.026l-0.102-0.051l-0.202-0.102l-0.401-0.203c-0.263-0.138-0.523-0.275-0.781-0.411
		c-0.523-0.261-0.973-0.584-1.426-0.884c-0.918-0.58-1.684-1.243-2.405-1.826c-1.385-1.241-2.431-2.362-3.099-3.211
		c-0.349-0.405-0.584-0.77-0.756-0.998C387.817,214.576,387.738,214.442,387.738,214.442z"/>
</g>
<g>
	<rect x="533.015" y="305.862" fill="#90A577" width="1.411" height="1.243"/>
	<rect x="533.568" y="306.528" fill="#846B44" width="0.305" height="0.577"/>
	<polygon fill="#A09272" points="532.883,305.862 533.721,305.285 534.558,305.862 	"/>
	<rect x="530.354" y="306.002" fill="#A591BC" width="1.411" height="1.243"/>
	<rect x="530.907" y="306.668" fill="#846B44" width="0.305" height="0.577"/>
	<polygon fill="#A0967D" points="530.222,306.002 531.059,305.425 531.896,306.002 	"/>
	<rect x="531.716" y="306.195" fill="#1F7CB5" width="1.411" height="1.243"/>
	<rect x="532.269" y="306.86" fill="#846B44" width="0.305" height="0.577"/>
	<polygon fill="#8E836C" points="531.585,306.195 532.422,305.618 533.259,306.195 	"/>
	<rect x="538.066" y="305.794" fill="#008E0A" width="1.411" height="1.243"/>
	<rect x="538.619" y="306.459" fill="#846B44" width="0.305" height="0.577"/>
	<polygon fill="#A0967D" points="537.934,305.794 538.771,305.217 539.608,305.794 	"/>
	<rect x="540.278" y="305.958" fill="#688744" width="1.411" height="1.243"/>
	<rect x="540.831" y="306.624" fill="#846B44" width="0.305" height="0.577"/>
	<polygon fill="#8E836C" points="540.147,305.958 540.984,305.381 541.821,305.958 	"/>
	<rect x="542.443" y="305.862" fill="#4C4A3B" width="1.411" height="1.243"/>
	<rect x="542.996" y="306.528" fill="#846B44" width="0.305" height="0.577"/>
	<polygon fill="#A09272" points="542.311,305.862 543.148,305.285 543.985,305.862 	"/>
	<rect x="541.352" y="306.247" fill="#145F84" width="1.411" height="1.243"/>
	<rect x="541.906" y="306.912" fill="#846B44" width="0.305" height="0.577"/>
	<polygon fill="#A0967D" points="541.221,306.247 542.058,305.67 542.895,306.247 	"/>
	<rect x="539.14" y="306.127" fill="#796691" width="1.411" height="1.243"/>
	<rect x="539.693" y="306.792" fill="#846B44" width="0.305" height="0.577"/>
	<polygon fill="#A09272" points="539.008,306.127 539.845,305.549 540.682,306.127 	"/>
	<rect x="534.91" y="304.748" fill="#C60202" width="3.367" height="2.453"/>
	<rect x="534.558" y="304.219" fill="#AA7517" width="4.073" height="0.529"/>
	<rect x="536.442" y="306.624" fill="#846B44" width="0.305" height="0.577"/>
</g>
<path fill="none" stroke="#C9A855" stroke-width="0.25" stroke-miterlimit="10" d="M534.146,307.693c0,0,2.413-0.109,6.961,0.375
	c4.549,0.484,8.163,1.557,8.163,1.557"/>
<path fill="#257F25" d="M626.045,293.73c-1.05-0.736-2.345-1.283-3.797-1.548c-0.35-1.255-1.532-2.283-3.1-2.758
	c-0.582-0.477-1.414-0.782-2.35-0.782c-1.278,0-2.373,0.562-2.877,1.368c-0.272,0.166-0.518,0.353-0.739,0.556
	c-0.127-0.01-0.256-0.016-0.387-0.016c-0.323,0-0.634,0.035-0.931,0.095c-0.786-0.284-1.666-0.447-2.599-0.447
	c-1.108,0-2.141,0.228-3.029,0.618c-0.604-0.384-1.388-0.618-2.247-0.618c-0.586,0-1.137,0.109-1.621,0.3
	c-0.656-1.241-2.282-2.121-4.19-2.121c-1.822,0-3.387,0.803-4.096,1.956c-0.389-0.087-0.801-0.135-1.229-0.135
	c-0.979,0-1.879,0.247-2.598,0.659c-0.713-1.085-2.212-1.834-3.951-1.834c-1.075,0-2.059,0.287-2.823,0.761
	c-0.79-0.223-1.643-0.35-2.538-0.35c-2.998,0-5.56,1.37-6.618,3.309c-0.349-0.051-0.708-0.079-1.077-0.079
	c-3.067,0-5.553,1.841-5.553,4.111c0,0.006,0.001,0.011,0.001,0.016c-0.145-0.008-0.29-0.016-0.437-0.016
	c-3.045,0-5.513,1.828-5.513,4.082c0,0.416,0.085,0.818,0.242,1.196c-1.176,0.853-1.908,2.04-1.908,3.355
	c0,2.462,2.558,4.478,5.812,4.679c-0.009,0.104-0.021,0.208-0.021,0.314c0,2.595,2.841,4.699,6.346,4.699
	c1.61,0,3.075-0.447,4.194-1.179c0.611,1.119,2.09,1.909,3.821,1.909c1.172,0,2.227-0.364,2.978-0.945
	c1.235,1.634,3.592,2.74,6.301,2.74c1.464,0,2.824-0.325,3.962-0.879c0.351,0.085,0.725,0.132,1.115,0.132
	c0.711,0,1.372-0.155,1.929-0.419c0.556,0.46,1.355,0.755,2.254,0.755c0.829,0,1.58-0.248,2.128-0.647
	c0.271,0.11,0.577,0.178,0.908,0.178c0.764,0,1.417-0.335,1.721-0.815c1.112,1.032,2.822,1.695,4.744,1.695
	c1.833,0,3.472-0.604,4.585-1.555c0.611,0.13,1.254,0.204,1.921,0.204c2.432,0,4.568-0.928,5.808-2.329
	c0.568,0.177,1.192,0.275,1.846,0.275c1.451,0,2.739-0.488,3.612-1.246V293.73z"/>
<path fill="#2DA038" d="M626.045,372.5v-68.367c-5.163-0.178-10.347-0.274-15.554-0.274c-87.311,0-168.74,25.17-237.439,68.641
	H626.045z"/>
<path fill="#C9A855" d="M567.387,326.31c5.297-11.269,10.485-18.328,13.006-21.433c-0.487,0.033-0.977,0.058-1.464,0.092
	c-2.737,3.486-7.592,10.38-12.526,20.878c-7.438,15.822-8.92,31.094-8.934,31.247l1.084,0.1
	C558.567,357.044,560.035,341.951,567.387,326.31z"/>
<path fill="#0E9610" d="M402.49,324.133c-23.063,0-45.558,1.857-67.262,5.364V372.5H594.8
	C540.947,342.103,474.457,324.133,402.49,324.133z"/>
</svg>
