<?xml version="1.0" encoding="utf-8"?>
<!-- Generator: Adobe Illustrator 17.0.0, SVG Export Plug-In . SVG Version: 6.00 Build 0)  -->
<!DOCTYPE svg PUBLIC "-//W3C//DTD SVG 1.1//EN" "http://www.w3.org/Graphics/SVG/1.1/DTD/svg11.dtd">
<svg version="1.1" id="Layer_1" xmlns="http://www.w3.org/2000/svg" xmlns:xlink="http://www.w3.org/1999/xlink" x="0px" y="0px"
	 width="960px" height="560px" viewBox="0 0 960 560" enable-background="new 0 0 960 560" xml:space="preserve">
<rect x="335.228" y="188.132" fill="#97D0E9" width="290.817" height="184.368"/>
<path fill="#CAE8ED" d="M397.448,317.823c0.981-0.848,1.614-2.086,1.614-3.485c0-2.406-1.844-4.361-4.193-4.581
	c-0.899-2.223-3.074-3.794-5.619-3.794c-0.086,0-0.17,0.009-0.255,0.013c-0.328-2.197-2.206-3.888-4.495-3.888
	c-1.846,0-3.426,1.101-4.145,2.678c-0.619-0.716-1.522-1.178-2.543-1.178c-0.731,0-1.403,0.238-1.955,0.633
	c-0.969-1.288-2.496-2.133-4.232-2.133c-2.934,0-5.313,2.378-5.313,5.313c0,1.016,0.3,1.956,0.795,2.763
	c-1.101,0.987-1.911,2.286-2.293,3.761c-2.344,0.942-4.002,3.232-4.002,5.914c0,3.521,2.854,6.375,6.375,6.375
	c2.179,0,4.101-1.095,5.25-2.763c0.58-0.019,1.142-0.103,1.682-0.244c0.658,1.753,2.335,3.007,4.318,3.007
	c1.977,0,3.651-1.246,4.313-2.99c0.457,0.142,0.933,0.24,1.437,0.24c1.449,0,2.736-0.645,3.629-1.648
	c0.766,0.996,1.956,1.648,3.309,1.648c0.168,0,0.327-0.03,0.49-0.049c0.531,1.968,2.312,3.424,4.448,3.424
	c2.554,0,4.625-2.071,4.625-4.625C400.688,320.145,399.321,318.415,397.448,317.823z"/>
<path fill="#CAE8ED" d="M532.667,340.721c-0.078,0-0.154,0.009-0.232,0.012c0.041-0.387,0.065-0.78,0.065-1.178
	c0-6.075-4.925-11-11-11c-5.405,0-9.89,3.902-10.816,9.04c-1.602-2.241-4.219-3.707-7.184-3.707c-4.194,0-7.697,2.926-8.6,6.845
	c-0.078-0.003-0.154-0.012-0.233-0.012c-3.866,0-7,3.134-7,7c0,3.866,3.134,7,7,7c0.179,0,0.355-0.014,0.53-0.027
	c1.253,1.541,3.162,2.527,5.303,2.527c3.676,0,6.666-2.905,6.819-6.544c0.192-0.092,0.381-0.188,0.565-0.294
	c0.251,2.433,2.284,4.338,4.783,4.338c1.028,0,1.977-0.326,2.76-0.873c1.363,2.033,3.681,3.373,6.312,3.373
	c3.313,0,6.123-2.125,7.161-5.084c1.053,0.782,2.354,1.251,3.767,1.251c3.498,0,6.333-2.836,6.333-6.333
	S536.165,340.721,532.667,340.721z"/>
<path fill="#CAE8ED" d="M379.979,256.028c0.479-0.792,0.771-1.711,0.771-2.704c0-2.9-2.351-5.25-5.25-5.25
	c-2.722,0-4.934,2.079-5.198,4.731c-0.631-0.376-1.361-0.606-2.149-0.606c-0.546,0-1.063,0.112-1.542,0.3
	c-1.427-2.635-4.216-4.425-7.424-4.425c-4.66,0-8.438,3.778-8.438,8.438c0,4.66,3.778,8.438,8.438,8.438
	c0.529,0,1.045-0.055,1.548-0.148c0.751,1.94,2.622,3.321,4.827,3.321c2.49,0,4.566-1.756,5.068-4.096
	c0.747,0.571,1.669,0.924,2.682,0.924c2.451,0,4.438-1.987,4.438-4.438c0-0.013-0.004-0.025-0.004-0.038
	c0.125,0.018,0.249,0.038,0.379,0.038c1.45,0,2.625-1.175,2.625-2.625C380.75,257.16,380.455,256.503,379.979,256.028z"/>
<path fill="#CAE8ED" d="M473.661,279.925c-1.305,0-2.505,0.436-3.473,1.164c-0.205-2.92-2.633-5.226-5.605-5.226
	c-0.85,0-1.653,0.194-2.375,0.532c-1.66,0.147-2.982,1.419-3.202,3.057c-0.877-1.185-2.273-1.964-3.86-1.964
	c-0.718,0-1.393,0.168-2.005,0.45c-0.915-1.892-2.847-3.2-5.089-3.2c-2.092,0-3.914,1.139-4.893,2.827
	c-0.247-0.049-0.502-0.077-0.764-0.077c-2.175,0-3.938,1.763-3.938,3.938s1.763,3.938,3.938,3.938c0.072,0,0.14-0.017,0.211-0.021
	c-0.133,0.496-0.211,1.015-0.211,1.553c0,3.296,2.672,5.969,5.969,5.969c1.818,0,3.442-0.815,4.537-2.096
	c0.616,0.813,1.583,1.346,2.682,1.346c1.729,0,3.138-1.306,3.335-2.982c0.393,0.142,0.811,0.232,1.253,0.232
	c1.564,0,2.897-0.97,3.444-2.339c0.016,0.003,0.033,0.005,0.049,0.008c0.386,2.554,2.57,4.517,5.232,4.517
	c0.844,0,1.632-0.215,2.341-0.566c0.738,0.341,1.557,0.536,2.424,0.536c3.202,0,5.797-2.595,5.797-5.797
	S476.863,279.925,473.661,279.925z"/>
<path fill="#CAE8ED" d="M538.089,251.809c0.554-0.49,0.911-1.197,0.911-1.995c0-1.476-1.196-2.672-2.672-2.672
	c-0.491,0-0.946,0.142-1.341,0.373c-0.069-1.321-1.153-2.373-2.491-2.373c-0.97,0-1.802,0.558-2.218,1.365
	c-0.317-0.319-0.756-0.517-1.241-0.517c-0.194,0-0.378,0.039-0.552,0.097c-0.487-0.573-1.205-0.945-2.016-0.945
	c-1.057,0-1.963,0.622-2.39,1.517c-0.047-0.026-0.098-0.046-0.146-0.071c-0.45-0.856-1.337-1.446-2.37-1.446
	c-0.661,0-1.257,0.247-1.725,0.643c-1.427,0.125-2.735,0.652-3.82,1.464c-0.371,0.092-0.719,0.239-1.029,0.444
	c-0.489-1.132-1.614-1.926-2.926-1.926c-1.76,0-3.188,1.427-3.188,3.188c0,0.006,0.002,0.012,0.002,0.018
	c-0.243-0.051-0.494-0.08-0.752-0.08c-2.002,0-3.625,1.623-3.625,3.625c0,2.002,1.623,3.625,3.625,3.625
	c0.099,0,0.192-0.021,0.289-0.029c-0.185,0.431-0.289,0.905-0.289,1.404c0,1.968,1.595,3.563,3.563,3.563
	c0.578,0,1.116-0.151,1.598-0.395c0.176,1.384,1.345,2.457,2.777,2.457c1.473,0,2.668-1.136,2.789-2.578
	c0.025,0.006,0.049,0.014,0.074,0.019c-0.03,0.161-0.05,0.327-0.05,0.497c0,1.484,1.203,2.688,2.688,2.688s2.688-1.203,2.688-2.688
	c0-0.248-0.044-0.483-0.107-0.711c0.45,0.829,1.317,1.398,2.326,1.398c0.599,0,1.146-0.206,1.59-0.54
	c0.24,1.095,1.212,1.915,2.378,1.915c1.28,0,2.318-0.99,2.418-2.245c0.341,0.108,0.697,0.183,1.074,0.183
	c1.972,0,3.57-1.599,3.57-3.57c0-0.284-0.042-0.556-0.104-0.821c0.063-0.277,0.104-0.562,0.104-0.858
	c0-0.708-0.205-1.362-0.538-1.932C537.58,253.386,537.995,252.65,538.089,251.809z"/>
<path fill="#CAE8ED" d="M509.053,207.188c0-2.094-1.698-3.792-3.792-3.792c-1.829,0-3.354,1.295-3.712,3.018
	c-0.186,0.074-0.359,0.17-0.533,0.266c-0.29-0.07-0.589-0.117-0.901-0.117c-0.16,0-0.313,0.028-0.468,0.047
	c-0.745-2.669-3.188-4.63-6.095-4.63c-2.923,0-5.377,1.983-6.107,4.675c-0.325-0.056-0.657-0.092-0.998-0.092
	c-3.21,0-5.813,2.602-5.813,5.813s2.602,5.813,5.813,5.813c0.985,0,1.912-0.247,2.725-0.679c1.107,1.355,2.79,2.221,4.676,2.221
	c3.119,0,5.684-2.365,6.002-5.4c0.886,0.912,2.121,1.483,3.492,1.483c2.692,0,4.875-2.183,4.875-4.875
	c0-0.417-0.069-0.816-0.167-1.202C508.668,209.061,509.053,208.173,509.053,207.188z"/>
<path fill="#CAE8ED" d="M407.681,357.11c0.718,2.881,3.635,4.634,6.515,3.916c2.467-0.615,4.094-2.845,4.063-5.282
	c0.82,0.205,1.693,0.241,2.57,0.022c0.773-0.193,1.455-0.555,2.038-1.023c0.679,0.413,1.516,0.567,2.348,0.36
	c0.69-0.172,1.257-0.571,1.665-1.089c0.87,0.626,1.99,0.894,3.112,0.615c1.557-0.388,2.636-1.692,2.826-3.193
	c2.346,1.849,5.485,2.64,8.608,1.862c1.236-0.308,2.355-0.842,3.337-1.534c0.391,0.493,1.046,0.743,1.696,0.581
	c0.888-0.221,1.428-1.12,1.207-2.008c-0.018-0.072-0.047-0.138-0.074-0.205c0.22,0.011,0.444,0.001,0.669-0.055
	c1.231-0.307,1.98-1.553,1.673-2.784c-0.167-0.669-0.615-1.187-1.184-1.479c0.339-1.482,0.353-3.061-0.039-4.637
	c-0.851-3.415-3.365-5.971-6.462-7.036c-0.008-0.092-0.017-0.183-0.04-0.275c-0.228-0.915-1.155-1.473-2.071-1.245
	c-0.537,0.134-0.945,0.512-1.15,0.983c-0.792,0.002-1.595,0.087-2.399,0.287c-1.621,0.404-3.046,1.187-4.214,2.224
	c0.012-0.501-0.036-1.01-0.163-1.52c-0.762-3.059-3.86-4.921-6.919-4.159c-3.059,0.762-4.921,3.86-4.159,6.919
	c0.09,0.359,0.214,0.7,0.364,1.024c-0.944-0.228-1.954-0.242-2.962,0.009c-0.991,0.247-1.863,0.722-2.582,1.35
	c-0.737-0.261-1.555-0.319-2.37-0.116c-2.211,0.551-3.556,2.789-3.005,5c0.004,0.017,0.013,0.032,0.017,0.048
	c-1.899,0.734-3.009,2.767-2.504,4.793c0.225,0.904,0.743,1.649,1.418,2.19C407.95,352.929,407.161,355.023,407.681,357.11z"/>
<path fill="#CAE8ED" d="M612.875,329.485c0-1.536-1.245-2.781-2.781-2.781c-0.65,0-1.241,0.232-1.714,0.606
	c-0.636-1.245-1.917-2.106-3.411-2.106c-1.077,0-2.047,0.445-2.745,1.159c-0.388-1.247-1.537-2.159-2.911-2.159
	c-0.892,0-1.688,0.388-2.247,0.996c-0.529-0.352-1.163-0.559-1.846-0.559c-1.847,0-3.344,1.497-3.344,3.344
	c0,0.153,0.025,0.298,0.045,0.445c-0.489,0.56-0.795,1.284-0.795,2.086c0,1.528,1.076,2.801,2.51,3.112
	c0.463,1.037,1.499,1.763,2.708,1.763c0.765,0,1.455-0.297,1.982-0.772c0.49,0.476,1.156,0.772,1.893,0.772
	c0.667,0,1.271-0.25,1.744-0.649c0.556,0.404,1.235,0.649,1.975,0.649c1.272,0,2.366-0.712,2.941-1.751
	c0.139,0.037,0.283,0.063,0.434,0.063c0.338,0,0.651-0.102,0.915-0.273c0.282,0.169,0.608,0.273,0.96,0.273
	c0.946,0,1.72-0.702,1.849-1.613C612.106,331.704,612.875,330.689,612.875,329.485z M598.181,330.107
	c0.237,0.095,0.491,0.151,0.753,0.184c-0.119,0.064-0.233,0.134-0.34,0.215C598.468,330.359,598.331,330.227,598.181,330.107z"/>
<path fill="#CAE8ED" d="M447.597,234.774c-0.124,0-0.24,0.026-0.361,0.036c-0.324-1.718-1.827-3.019-3.639-3.019
	c-1.013,0-1.928,0.408-2.598,1.066c-0.636-0.579-1.474-0.941-2.402-0.941c-0.173,0-0.339,0.027-0.506,0.051
	c-0.744-1.459-2.244-2.468-3.994-2.468c-1.422,0-2.675,0.673-3.499,1.703c-0.583-0.436-1.3-0.703-2.084-0.703
	c-1.386,0-2.574,0.813-3.14,1.982c-0.432-0.138-0.883-0.232-1.36-0.232c-2.485,0-4.5,2.015-4.5,4.5s2.015,4.5,4.5,4.5
	c0.57,0,1.111-0.117,1.613-0.311c0.678,1.569,2.236,2.668,4.054,2.668c1.703,0,3.163-0.974,3.9-2.386
	c0.39,0.325,0.885,0.529,1.433,0.529c0.25,0,0.487-0.05,0.712-0.126c0.653,0.881,1.691,1.459,2.872,1.459
	c1.181,0,2.219-0.578,2.872-1.459c0.225,0.075,0.461,0.126,0.712,0.126c0.574,0,1.093-0.222,1.49-0.576
	c0.728,1.438,2.204,2.433,3.926,2.433c2.439,0,4.417-1.977,4.417-4.417S450.036,234.774,447.597,234.774z"/>
<path fill="#CAE8ED" d="M563.451,303.02c0.402-0.764,0.633-1.633,0.633-2.557c0-3.038-2.462-5.5-5.5-5.5
	c-0.574,0-1.128,0.089-1.648,0.252c-0.652-3.095-3.396-5.419-6.685-5.419c-1.995,0-3.784,0.86-5.033,2.223
	c-1.633-1.821-3.996-2.973-6.634-2.973c-3.458,0-6.449,1.972-7.929,4.85c-0.321-0.06-0.65-0.1-0.988-0.1
	c-2.946,0-5.333,2.388-5.333,5.333c0,2.945,2.388,5.333,5.333,5.333c0.253,0,0.495-0.04,0.739-0.074
	c-0.405,0.744-0.656,1.584-0.656,2.491c0,2.899,2.351,5.25,5.25,5.25c1.489,0,2.826-0.626,3.781-1.621
	c0.202,0.063,0.413,0.106,0.635,0.106c0.459,0,0.883-0.146,1.232-0.391c0.615,2.805,3.111,4.906,6.101,4.906
	c2.899,0,5.33-1.976,6.036-4.653c0.956-0.253,1.755-0.87,2.248-1.699c0.762,1.959,2.655,3.352,4.883,3.352
	c2.899,0,5.25-2.351,5.25-5.25C565.167,305.347,564.498,303.98,563.451,303.02z"/>
<path fill="#CAE8ED" d="M603.989,240.998c0.366-0.249,0.687-0.576,0.916-0.991c0.773-1.407,0.259-3.174-1.148-3.947
	c-1.239-0.681-2.756-0.361-3.628,0.685c-0.211-0.452-0.556-0.845-1.027-1.104c-1.117-0.614-2.496-0.251-3.191,0.789
	c-0.125-0.02-0.249-0.033-0.374-0.039c0.142-1.515-0.603-3.041-2.022-3.82c-1.303-0.716-2.826-0.601-3.999,0.143
	c-0.134-0.1-0.265-0.203-0.415-0.286c-0.043-0.024-0.09-0.035-0.134-0.057c-0.213-0.993-0.824-1.896-1.784-2.423
	c-1.755-0.964-3.959-0.323-4.923,1.431c-0.075,0.137-0.123,0.28-0.179,0.421c-0.208-0.162-0.42-0.322-0.659-0.454
	c-1.045-0.574-2.202-0.713-3.291-0.516c-1.774-0.931-3.974-0.28-4.943,1.484c-0.89,1.62-0.425,3.607,1.003,4.695
	c0.339,1.275,1.168,2.416,2.415,3.102c2.146,1.179,4.774,0.611,6.27-1.219c0.281,0.656,0.762,1.231,1.436,1.601
	c0.745,0.409,1.575,0.49,2.342,0.311c0.186,0.701,0.642,1.328,1.328,1.705c0.905,0.497,1.961,0.421,2.779-0.091
	c0.111,0.085,0.222,0.17,0.348,0.24c0.459,0.252,0.958,0.352,1.446,0.335c0.232,0.414,0.572,0.774,1.018,1.019
	c1.174,0.645,2.615,0.289,3.38-0.769c0.198-0.097,0.385-0.215,0.564-0.349c0.074,0.261,0.198,0.506,0.353,0.732
	c0.074,1.173,0.719,2.286,1.826,2.894c1.719,0.944,3.877,0.317,4.822-1.402C605.277,243.742,605.008,242.089,603.989,240.998z"/>
<path fill="#CAE8ED" d="M400.688,209c0-1.91-1.548-3.458-3.458-3.458c-0.545,0-1.053,0.137-1.512,0.362
	c0.029-0.173,0.053-0.347,0.053-0.528c0-1.772-1.437-3.208-3.208-3.208c-1.007,0-1.894,0.473-2.483,1.199
	c-1.14-0.866-2.558-1.387-4.101-1.387c-2.787,0-5.179,1.68-6.226,4.082c-0.421-0.218-0.892-0.353-1.399-0.353
	c-1.691,0-3.063,1.371-3.063,3.063c0,1.13,0.619,2.106,1.529,2.637c-0.492,0.728-0.779,1.606-0.779,2.551
	c0,2.52,2.043,4.563,4.563,4.563c1.054,0,2.012-0.372,2.785-0.972c0.321-0.08,0.622-0.208,0.895-0.379
	c0.341,1.43,1.619,2.498,3.154,2.498c0.687,0,1.322-0.216,1.846-0.579c0.622,2.181,2.607,3.787,4.987,3.787
	c2.876,0,5.208-2.332,5.208-5.208c0-0.76-0.171-1.476-0.464-2.127c0.858-0.629,1.422-1.637,1.422-2.783
	c0-0.615-0.174-1.184-0.455-1.684C400.419,210.494,400.688,209.781,400.688,209z"/>
</svg>
