<?xml version="1.0" encoding="utf-8"?>
<!-- Generator: Adobe Illustrator 17.0.0, SVG Export Plug-In . SVG Version: 6.00 Build 0)  -->
<!DOCTYPE svg PUBLIC "-//W3C//DTD SVG 1.1//EN" "http://www.w3.org/Graphics/SVG/1.1/DTD/svg11.dtd">
<svg version="1.1" id="Layer_1" xmlns="http://www.w3.org/2000/svg" xmlns:xlink="http://www.w3.org/1999/xlink" x="0px" y="0px"
	 width="960px" height="560px" viewBox="0 0 960 560" enable-background="new 0 0 960 560" xml:space="preserve">
<path fill="#FCFCFC" d="M488.826,272.232c0.219-0.492,0.347-1.032,0.347-1.605c0-2.183-1.775-3.958-3.958-3.958
	s-3.958,1.775-3.958,3.958c0,0.508,0.105,0.991,0.28,1.437l-3.385-1.954c-0.379-0.219-0.811-0.335-1.248-0.335
	c-0.891,0-1.721,0.479-2.167,1.25l-3,5.196l4.235,2.444l-0.229,0.397l-0.076,0.104l-2.282,3.954l-2.923-1.688l-2.5,4.331
	l5.087,2.938c0.38,0.219,0.813,0.335,1.25,0.335c0.218,0,0.435-0.028,0.648-0.085c0.634-0.171,1.187-0.596,1.517-1.165l2.25-3.896
	l2.49,1.438l-3.433,5.945l4.331,2.5l4.682-8.11c0.334-0.578,0.423-1.251,0.25-1.896s-0.587-1.185-1.165-1.519l-2.065-1.192
	l0.826-1.43l2.064,1.192c0.38,0.219,0.812,0.335,1.248,0.335c0.892,0,1.722-0.479,2.167-1.25l3-5.196L488.826,272.232z
	 M488.216,273.178l-1.188,2.058l-1.228-0.709C486.766,274.382,487.611,273.89,488.216,273.178z"/>
</svg>
