<?xml version="1.0" encoding="utf-8"?>
<!-- Generator: Adobe Illustrator 17.0.0, SVG Export Plug-In . SVG Version: 6.00 Build 0)  -->
<!DOCTYPE svg PUBLIC "-//W3C//DTD SVG 1.1//EN" "http://www.w3.org/Graphics/SVG/1.1/DTD/svg11.dtd">
<svg version="1.1" id="Layer_1" xmlns="http://www.w3.org/2000/svg" xmlns:xlink="http://www.w3.org/1999/xlink" x="0px" y="0px"
	 width="960px" height="560px" viewBox="0 0 960 560" enable-background="new 0 0 960 560" xml:space="preserve">
<g>
	<circle fill="#FFFFFF" cx="485.215" cy="270.628" r="2.958"/>
	<path fill="#FFFFFF" d="M487.194,279.95c0.718,0.414,1.635,0.168,2.049-0.549l2.5-4.33l-2.598-1.5l-1.75,3.031l-9.743-5.625
		c-0.718-0.414-1.635-0.168-2.049,0.549l-2.5,4.33l2.598,1.5l1.75-3.031l1.633,0.943l-2.522,4.369
		c-0.02,0.03-0.044,0.056-0.062,0.087l-2.75,4.763l-2.923-1.688l-1.5,2.598l4.222,2.438c0.345,0.199,0.754,0.253,1.138,0.15
		s0.712-0.355,0.911-0.699l2.75-4.763l4.222,2.438l-3.432,5.945l2.598,1.5l4.182-7.244c0.414-0.717,0.169-1.635-0.549-2.049
		l-2.931-1.692l1.826-3.162L487.194,279.95z"/>
</g>
</svg>
