<?xml version="1.0" encoding="utf-8"?>
<!-- Generator: Adobe Illustrator 17.0.0, SVG Export Plug-In . SVG Version: 6.00 Build 0)  -->
<!DOCTYPE svg PUBLIC "-//W3C//DTD SVG 1.1//EN" "http://www.w3.org/Graphics/SVG/1.1/DTD/svg11.dtd">
<svg version="1.1" id="Layer_1" xmlns="http://www.w3.org/2000/svg" xmlns:xlink="http://www.w3.org/1999/xlink" x="0px" y="0px"
	 width="960px" height="560px" viewBox="0 0 960 560" enable-background="new 0 0 960 560" xml:space="preserve">
<path fill="#00DD73" d="M486.957,281.929c0.356,1.154-1.654,2.8-4.49,3.676s-5.425,0.65-5.781-0.504l-0.572-1.851l10.271-3.172
	L486.957,281.929z"/>
<ellipse transform="matrix(0.9555 -0.2951 0.2951 0.9555 -61.683 154.5421)" fill="#00F77B" cx="481.25" cy="281.664" rx="5.375" ry="2.188"/>
<path fill="#00BF5B" d="M485.587,280.068c0.306,0.991-1.42,2.404-3.855,3.156c-2.435,0.752-4.658,0.558-4.964-0.433l-0.131-0.423
	l8.819-2.723L485.587,280.068z"/>
<path fill="#00DD73" d="M486.109,279.182c0.356,1.154-1.654,2.8-4.49,3.676s-5.425,0.65-5.781-0.504l-0.572-1.851l10.271-3.172
	L486.109,279.182z"/>
<ellipse transform="matrix(0.9555 -0.2951 0.2951 0.9555 -60.9102 154.1695)" fill="#00F77B" cx="480.402" cy="278.917" rx="5.375" ry="2.188"/>
<path fill="#00BF5B" d="M484.739,277.321c0.306,0.991-1.42,2.404-3.855,3.156c-2.435,0.752-4.658,0.558-4.964-0.433l-0.131-0.423
	l8.819-2.723L484.739,277.321z"/>
<path fill="#00DD73" d="M485.261,276.435c0.356,1.154-1.654,2.8-4.49,3.676s-5.425,0.65-5.781-0.504l-0.572-1.851l10.271-3.172
	L485.261,276.435z"/>
<ellipse transform="matrix(0.9555 -0.2951 0.2951 0.9555 -60.1374 153.7969)" fill="#00F77B" cx="479.553" cy="276.17" rx="5.375" ry="2.188"/>
</svg>
